<?xml version="1.0" encoding="iso-8859-1"?>
<!-- Generator: Adobe Illustrator 16.0.0, SVG Export Plug-In . SVG Version: 6.00 Build 0)  -->
<!DOCTYPE svg PUBLIC "-//W3C//DTD SVG 1.1//EN" "http://www.w3.org/Graphics/SVG/1.1/DTD/svg11.dtd">
<svg version="1.1" id="Capa_1" xmlns="http://www.w3.org/2000/svg" xmlns:xlink="http://www.w3.org/1999/xlink" x="0px" y="0px"
	 width="612px" height="612px" viewBox="0 0 612 612" style="enable-background:new 0 0 612 612;" xml:space="preserve">
<g>
	<g id="Shape_19">
		<g>
			<path d="M177.017,493.73c-21.41,0-38.835,17.676-38.835,39.432c0,21.754,17.425,39.43,38.835,39.43s38.835-17.676,38.835-39.43
				C215.853,511.406,198.427,493.73,177.017,493.73z M177.017,556.83c-12.846,0-23.307-10.619-23.307-23.652
				c0-13.035,10.461-23.652,23.307-23.652s23.308,10.617,23.308,23.652C200.325,546.211,189.863,556.83,177.017,556.83z
				 M565.4,493.73c-21.409,0-38.835,17.676-38.835,39.432c0,21.754,17.426,39.43,38.835,39.43c21.41,0,38.836-17.676,38.836-39.43
				C604.236,511.406,586.811,493.73,565.4,493.73z M565.4,556.83c-12.846,0-23.307-10.619-23.307-23.652
				c0-13.035,10.461-23.652,23.307-23.652s23.308,10.617,23.308,23.652C588.708,546.211,578.246,556.83,565.4,556.83z
				 M152.878,447.225l-30.522-266.576L12.266,39.408L0,48.913l107.409,137.806l31.604,276.02H612V447.24H152.878V447.225z
				 M595.971,180.304H172.61v235.599h423.376V180.304H595.971z M580.301,400.203H188.279V196.02h392.006v204.184H580.301z"/>
		</g>
	</g>
</g>
<g>
</g>
<g>
</g>
<g>
</g>
<g>
</g>
<g>
</g>
<g>
</g>
<g>
</g>
<g>
</g>
<g>
</g>
<g>
</g>
<g>
</g>
<g>
</g>
<g>
</g>
<g>
</g>
<g>
</g>
</svg>
