<?xml version="1.0" encoding="UTF-8"?>
<!DOCTYPE svg PUBLIC "-//W3C//DTD SVG 1.1//EN" "http://www.w3.org/Graphics/SVG/1.1/DTD/svg11.dtd">
<!-- Creator: CorelDRAW -->
<svg xmlns="http://www.w3.org/2000/svg" xml:space="preserve" width="6.82666in" height="6.82666in" style="shape-rendering:geometricPrecision; text-rendering:geometricPrecision; image-rendering:optimizeQuality; fill-rule:evenodd; clip-rule:evenodd"
viewBox="0 0 6.82666 6.82666"
 xmlns:xlink="http://www.w3.org/1999/xlink">
 <defs>
  <style type="text/css">
   <![CDATA[
    .fil2 {fill:none}
    .fil1 {fill:black}
    .fil0 {fill:black;fill-rule:nonzero}
   ]]>
  </style>
 </defs>
 <g id="Layer_x0020_1">
  <metadata id="CorelCorpID_0Corel-Layer"/>
  <g id="_345230512">
   <path id="_345231448" class="fil0" d="M1.18463 3.55204l0 -2.38666 0 -0.0533346 0.0533346 0 1.80153 0 0.0343346 0 0.0142047 0.0314606 0.788776 1.74682 1.82668 0.252937 0.0460433 0.00637795 0 0.0463307 0 0.425469 -0.00479528 0.0220827 -0.213571 0.469346 -0.0970787 -0.0441654 0.208776 -0.458807 0 -0.367591 -1.80978 -0.250598 -0.0291496 -0.00403543 -0.0120984 -0.0267992 -0.786673 -1.74216 -1.71386 0 0 2.33332 -0.106669 0zm3.06309 1.1854l-0.801492 -0.115571 0.015 -0.105417 0.801492 0.115571 -0.015 0.105417z"/>
   <g>
    <path id="_345232888" class="fil0" d="M2.19902 3.02324c0.0533701,0 0.0954567,0.0280079 0.137157,0.0557677 0.0250079,0.0166457 0.0498465,0.0331811 0.0688465,0.0362756 0.0192441,0.0031378 0.048122,-0.00500394 0.0768504,-0.0131063 0.046874,-0.0132165 0.0934961,-0.0263622 0.14228,-0.010126 0.0494134,0.0164488 0.0787205,0.0552913 0.107902,0.0939803 0.0174409,0.023122 0.0348386,0.0461772 0.050622,0.0543583 0.0163031,0.00844882 0.0450354,0.00923622 0.0737165,0.0100118 0.0482402,0.00130709 0.0964094,0.00261811 0.137346,0.032626 0.0412323,0.0302244 0.0568622,0.0756535 0.0724685,0.121035 0.0092874,0.0270157 0.0185748,0.0540197 0.0311102,0.0665551 0.0125276,0.0125276 0.0395394,0.0218228 0.0665551,0.0311142 0.0453819,0.0156063 0.090811,0.0312362 0.121035,0.0724685 0.0300079,0.040937 0.031315,0.0891024 0.032626,0.137343 0.000775591,0.0286811 0.00156299,0.0574173 0.0100118,0.0737205 0.0081811,0.0157874 0.0312402,0.0331811 0.0543622,0.050622 0.038689,0.029189 0.0775276,0.0584882 0.0939764,0.107902 0.0162441,0.0487913 0.00309055,0.0954094 -0.010122,0.142287 -0.00810236,0.0287283 -0.0162441,0.0576024 -0.0131063,0.0768465 0.00309449,0.019 0.0196299,0.0438346 0.0362795,0.0688465 0.0277559,0.0417008 0.0557677,0.0837835 0.0557677,0.137157 0,0.0533819 -0.0280118,0.0954528 -0.0557677,0.137161 -0.0166496,0.0250118 -0.033185,0.0498465 -0.0362795,0.0688425 -0.00313386,0.0192362 0.00500787,0.048122 0.0131063,0.0768504 0.0132165,0.046874 0.0263622,0.0935 0.010126,0.14228 -0.0164449,0.0494094 -0.0552874,0.0787165 -0.0939764,0.107906 -0.023122,0.0174409 -0.0461772,0.0348307 -0.0543583,0.0506181 -0.00844882,0.0162992 -0.00923622,0.0450394 -0.0100118,0.0737205 -0.00131102,0.0482402 -0.00261811,0.0964055 -0.032626,0.137343 -0.0302323,0.0412402 -0.0756614,0.0568661 -0.121043,0.0724724 -0.0270118,0.0092874 -0.0540157,0.0185748 -0.0665472,0.0311063 -0.0125354,0.0125354 -0.0218268,0.0395433 -0.0311181,0.0665591 -0.0156063,0.0453858 -0.0312402,0.090811 -0.0724646,0.121031 -0.040937,0.0300079 -0.0891063,0.0313189 -0.137346,0.032626 -0.0286811,0.000775591 -0.0574134,0.00156299 -0.0737165,0.0100118 -0.0157913,0.00818504 -0.033185,0.0312402 -0.050626,0.0543661 -0.0291811,0.0386811 -0.0584843,0.0775276 -0.107898,0.0939764 -0.0487913,0.0162362 -0.0954173,0.00309055 -0.142287,-0.010126 -0.0287283,-0.00810236 -0.0576024,-0.0162441 -0.0768465,-0.0131063 -0.019,0.00309843 -0.0438346,0.0196299 -0.0688465,0.0362795 -0.0417047,0.0277598 -0.0837835,0.0557677 -0.137157,0.0557677 -0.053374,0 -0.0954567,-0.0280118 -0.137165,-0.0557677 -0.0250118,-0.0166496 -0.0498425,-0.0331811 -0.0688425,-0.0362795 -0.0192362,-0.00313386 -0.048122,0.00500787 -0.0768504,0.0131063 -0.046874,0.0132165 -0.0934921,0.0263701 -0.142276,0.0101299 -0.0494213,-0.0164449 -0.0787244,-0.0552913 -0.107909,-0.0939803 -0.0174409,-0.023122 -0.0348346,-0.0461772 -0.0506181,-0.0543583 -0.0163031,-0.00844882 -0.0450354,-0.00923622 -0.0737165,-0.0100118 -0.0482402,-0.00130709 -0.0964094,-0.00261811 -0.137346,-0.032626 -0.0412362,-0.0302205 -0.0568622,-0.0756496 -0.0724685,-0.121035 -0.0092874,-0.0270157 -0.0185748,-0.0540197 -0.0311102,-0.0665551 -0.0125276,-0.0125276 -0.0395394,-0.0218228 -0.0665551,-0.0311142 -0.0453819,-0.0156063 -0.090811,-0.0312362 -0.121035,-0.0724685 -0.03,-0.040937 -0.031315,-0.0891024 -0.032622,-0.137343 -0.000775591,-0.0286811 -0.00156299,-0.0574173 -0.0100118,-0.0737205 -0.00818504,-0.0157913 -0.0312402,-0.033185 -0.0543661,-0.050626 -0.0386811,-0.0291811 -0.0775276,-0.0584843 -0.0939764,-0.107898 -0.0162362,-0.0487795 -0.00309055,-0.0954094 0.010122,-0.142283 0.00810236,-0.0287283 0.0162441,-0.0576063 0.0131063,-0.0768504 -0.00309449,-0.0189921 -0.019626,-0.0438268 -0.0362756,-0.0688386 -0.0277559,-0.0417087 -0.0557677,-0.0837913 -0.0557677,-0.137165 0,-0.053374 0.0280118,-0.0954528 0.0557677,-0.137161 0.0166496,-0.0250118 0.0331811,-0.0498425 0.0362756,-0.0688425 0.00313386,-0.0192402 -0.00500787,-0.048122 -0.0131063,-0.0768504 -0.0132165,-0.046874 -0.0263622,-0.0935 -0.010126,-0.14228 0.0164528,-0.0494173 0.0552953,-0.0787244 0.0939803,-0.107906 0.023122,-0.0174409 0.0461811,-0.0348386 0.0543583,-0.0506181 0.00844882,-0.0163031 0.00923622,-0.0450394 0.0100118,-0.0737205 0.00130709,-0.0482402 0.00261811,-0.0964016 0.032622,-0.137343 0.0302205,-0.0412323 0.0756575,-0.0568661 0.121043,-0.0724724 0.0270118,-0.0092874 0.0540157,-0.0185748 0.0665472,-0.0311063 0.0125354,-0.0125354 0.0218268,-0.0395433 0.0311181,-0.0665591 0.0156063,-0.0453858 0.0312362,-0.090811 0.0724646,-0.121031 0.040937,-0.0300079 0.0891063,-0.0313189 0.137346,-0.032626 0.0286811,-0.000775591 0.0574134,-0.00156299 0.0737165,-0.0100118 0.0157913,-0.00818504 0.033185,-0.0312402 0.050626,-0.0543622 0.0291811,-0.038685 0.0584882,-0.0775315 0.107902,-0.0939803 0.0487874,-0.0162362 0.0954094,-0.00309055 0.142283,0.010126 0.0287283,0.00810236 0.0576063,0.0162441 0.0768465,0.0131063 0.019,-0.00309449 0.0438346,-0.0196299 0.0688465,-0.0362795 0.0417008,-0.0277559 0.0837874,-0.0557677 0.137161,-0.0557677zm0.0784094 0.144516c-0.0282992,-0.0188386 -0.0568543,-0.0378465 -0.0784094,-0.0378465 -0.0215512,0 -0.0501102,0.0190079 -0.0784134,0.0378465 -0.0344567,0.022937 -0.0686654,0.0457126 -0.110508,0.0525315 -0.0426496,0.00695276 -0.0827717,-0.00435433 -0.122681,-0.0156102 -0.031378,-0.00884646 -0.0625945,-0.0176496 -0.0802047,-0.0117874 -0.0173622,0.00577559 -0.0368386,0.0315984 -0.0562323,0.057311 -0.0246535,0.0326811 -0.0492402,0.0652677 -0.086878,0.0847795 -0.0375079,0.0194409 -0.0787717,0.020563 -0.119969,0.0216811 -0.0313189,0.000846457 -0.0625945,0.00170079 -0.0769291,0.0122087 -0.0140945,0.0103307 -0.0243268,0.0400709 -0.0345433,0.0697795 -0.0133346,0.0387677 -0.0266654,0.0775236 -0.0565354,0.107394 -0.029874,0.0298701 -0.0686142,0.0431929 -0.107382,0.0565236 -0.0297087,0.0102165 -0.0594567,0.0204488 -0.0697913,0.0345512 -0.0105,0.0143307 -0.0113583,0.0456024 -0.0122047,0.0769252 -0.00111811,0.0411969 -0.00224016,0.0824646 -0.0216811,0.119972 -0.0195079,0.0376378 -0.0520945,0.0622165 -0.0847756,0.0868701 -0.0257165,0.0193976 -0.0515315,0.038878 -0.057311,0.0562362 -0.00585827,0.0176063 0.00294094,0.0488228 0.0117874,0.0802008 0.011252,0.0399094 0.022563,0.0800315 0.0156102,0.122685 -0.0068189,0.0418346 -0.0295906,0.0760472 -0.0525276,0.110504 -0.0188346,0.0283031 -0.0378465,0.0568583 -0.0378465,0.0784134 0,0.0215551 0.0190118,0.0501142 0.0378465,0.0784173 0.022937,0.0344567 0.0457087,0.0686654 0.0525276,0.1105 0.00695276,0.0426535 -0.00435433,0.0827756 -0.0156102,0.122685 -0.00884252,0.031378 -0.0176457,0.0625945 -0.0117835,0.0802047 0.00577559,0.0173543 0.0315945,0.0368346 0.0573071,0.0562283 0.032685,0.0246535 0.0652717,0.0492402 0.0847835,0.086878 0.0194409,0.0375079 0.020563,0.0787756 0.0216811,0.119972 0.000846457,0.0313189 0.00170079,0.0625945 0.0122047,0.0769252 0.0103346,0.0140984 0.0400748,0.0243307 0.0697835,0.0345472 0.0387677,0.0133346 0.0775197,0.0266614 0.10739,0.0565315 0.0298701,0.0298701 0.0431969,0.0686181 0.0565276,0.10739 0.0102165,0.0297087 0.0204488,0.0594488 0.0345472,0.0697835 0.0143346,0.0105079 0.0456102,0.0113622 0.0769291,0.0122087 0.0411969,0.00111811 0.0824606,0.00224016 0.119969,0.0216811 0.0376299,0.0195039 0.0622205,0.0520906 0.0868701,0.0847756 0.0193976,0.0257126 0.038878,0.0515354 0.0562402,0.057311 0.0176024,0.00585827 0.0488189,-0.00294488 0.0801969,-0.0117913 0.0399094,-0.011252 0.0800315,-0.022563 0.122685,-0.0156102 0.0418425,0.00682677 0.0760472,0.0295945 0.110504,0.0525315 0.0283031,0.0188346 0.0568622,0.0378465 0.0784173,0.0378465 0.0215512,0 0.0501102,-0.0190079 0.0784094,-0.0378465 0.0344567,-0.022937 0.0686614,-0.0457047 0.110508,-0.0525315 0.0426575,-0.00695276 0.0827717,0.00435433 0.122681,0.0156102 0.031378,0.00884646 0.0625945,0.0176496 0.0802087,0.0117874 0.0173543,-0.00577559 0.0368346,-0.0315945 0.0562283,-0.0573071 0.0246535,-0.032685 0.0492362,-0.0652717 0.086878,-0.0847835 0.0375079,-0.0194409 0.0787717,-0.020563 0.119969,-0.0216811 0.0313189,-0.000846457 0.0625945,-0.00170079 0.0769291,-0.0122087 0.0140945,-0.0103307 0.0243268,-0.0400709 0.0345433,-0.0697795 0.0133346,-0.0387677 0.0266614,-0.0775197 0.0565354,-0.107394 0.0298701,-0.0298661 0.0686142,-0.0431929 0.107382,-0.0565236 0.0297126,-0.0102165 0.0594528,-0.0204488 0.0697913,-0.0345512 0.0105079,-0.0143346 0.0113583,-0.0456063 0.0122087,-0.0769252 0.00111811,-0.0411969 0.00224016,-0.0824646 0.0216811,-0.119972 0.0195039,-0.0376299 0.0520906,-0.0622205 0.0847756,-0.0868701 0.0257126,-0.0193976 0.0515315,-0.038878 0.0573071,-0.0562362 0.0058622,-0.0176102 -0.00294094,-0.0488228 -0.0117874,-0.0802008 -0.011252,-0.0399094 -0.022563,-0.0800315 -0.0156102,-0.122685 0.0068189,-0.0418386 0.0295945,-0.0760472 0.0525315,-0.110504 0.0188346,-0.0283031 0.0378465,-0.0568622 0.0378465,-0.0784134 0,-0.0215512 -0.0190118,-0.0501102 -0.0378465,-0.0784094 -0.022937,-0.0344567 -0.0457126,-0.0686654 -0.0525315,-0.110508 -0.00695276,-0.0426496 0.00435433,-0.0827756 0.0156102,-0.122681 0.00884646,-0.0313819 0.0176457,-0.0625945 0.0117835,-0.0802087 -0.00577559,-0.0173583 -0.0315945,-0.0368346 -0.0573071,-0.0562323 -0.0326811,-0.0246535 -0.0652638,-0.0492283 -0.0847795,-0.086874 -0.0194409,-0.0375079 -0.020563,-0.0787756 -0.0216811,-0.119972 -0.000850394,-0.0313189 -0.00170079,-0.0625906 -0.0122087,-0.0769252 -0.0103346,-0.0140984 -0.0400748,-0.0243307 -0.0697835,-0.0345472 -0.0387677,-0.0133346 -0.0775197,-0.0266614 -0.10739,-0.0565315 -0.0298701,-0.0298701 -0.0431969,-0.0686181 -0.0565276,-0.10739 -0.0102165,-0.0297087 -0.0204488,-0.0594488 -0.0345472,-0.0697835 -0.0143346,-0.0105079 -0.0456102,-0.0113622 -0.0769291,-0.0122087 -0.0411969,-0.00111811 -0.0824606,-0.00224016 -0.119969,-0.0216811 -0.0376339,-0.0195039 -0.0622205,-0.0520945 -0.086874,-0.0847756 -0.0193937,-0.0257126 -0.0388701,-0.0515354 -0.0562323,-0.057311 -0.0176102,-0.0058622 -0.0488228,0.00294094 -0.0802008,0.0117874 -0.0399094,0.0112559 -0.0800354,0.022563 -0.122685,0.0156102 -0.0418425,-0.0068189 -0.0760551,-0.0295984 -0.110508,-0.0525276z"/>
    <path id="_345229840" class="fil0" d="M2.19902 3.40735c0.265524,0 0.505925,0.107634 0.679933,0.281646 0.174012,0.174012 0.281646,0.414409 0.281646,0.679937 0,0.265528 -0.107634,0.505925 -0.281646,0.679937 -0.174008,0.174012 -0.414409,0.281646 -0.679933,0.281646 -0.265528,0 -0.505925,-0.107634 -0.679937,-0.281646 -0.174012,-0.174012 -0.281646,-0.414409 -0.281646,-0.679937 0,-0.265524 0.107634,-0.505925 0.281646,-0.679937 0.174012,-0.174008 0.414409,-0.281646 0.679937,-0.281646zm0.604516 0.357063c-0.154701,-0.154705 -0.368437,-0.250394 -0.604516,-0.250394 -0.236083,0 -0.449815,0.0956929 -0.60452,0.250394 -0.154705,0.154705 -0.250394,0.368441 -0.250394,0.60452 0,0.236083 0.095689,0.449815 0.250394,0.60452 0.154705,0.154705 0.368437,0.250394 0.60452,0.250394 0.236079,0 0.449815,-0.095689 0.604516,-0.250394 0.154705,-0.154705 0.250394,-0.368437 0.250394,-0.60452 0,-0.236083 -0.095689,-0.449815 -0.250394,-0.60452z"/>
    <path id="_345238096" class="fil0" d="M2.19902 4.10203c0.0736929,0 0.140425,0.0298819 0.18872,0.0781772 0.0482953,0.0482992 0.0781772,0.115031 0.0781772,0.188724 0,0.0736929 -0.0298819,0.140425 -0.0781772,0.188724 -0.0482953,0.0482953 -0.115028,0.0781772 -0.18872,0.0781772 -0.0736929,0 -0.140425,-0.0298819 -0.188724,-0.0781772 -0.0482953,-0.0482992 -0.0781772,-0.115031 -0.0781772,-0.188724 0,-0.073689 0.0298819,-0.140425 0.0781772,-0.188724 0.0482992,-0.0482953 0.115031,-0.0781772 0.188724,-0.0781772zm0.113303 0.153594c-0.0289882,-0.0289882 -0.0690551,-0.0469252 -0.113303,-0.0469252 -0.044252,0 -0.084315,0.017937 -0.113307,0.0469252 -0.0289882,0.0289921 -0.0469252,0.0690591 -0.0469252,0.113307 0,0.044252 0.017937,0.084315 0.0469252,0.113307 0.0289921,0.0289882 0.0690551,0.0469252 0.113307,0.0469252 0.044248,0 0.084315,-0.017937 0.113303,-0.0469252 0.0289882,-0.0289921 0.0469252,-0.0690551 0.0469252,-0.113307 0,-0.044252 -0.017937,-0.084315 -0.0469252,-0.113307z"/>
    <g>
     <circle id="_345240976" class="fil1" cx="2.19901" cy="3.80372" r="0.0533914"/>
     <circle id="_345232144" class="fil1" cx="2.19901" cy="4.93413" r="0.0533914"/>
    </g>
    <g>
     <circle id="_345244480" class="fil1" transform="matrix(0.0372568 0.0372568 -0.0372568 0.0372568 2.59867 3.96927)" r="1.01333"/>
     <circle id="_345237568" class="fil1" transform="matrix(0.0372568 0.0372568 -0.0372568 0.0372568 1.79935 4.76859)" r="1.01333"/>
    </g>
    <g>
     <circle id="_345230584" class="fil1" transform="matrix(1.39625E-015 0.052689 -0.052689 1.39625E-015 2.76422 4.36893)" r="1.01333"/>
     <circle id="_345243328" class="fil1" transform="matrix(1.39625E-015 0.052689 -0.052689 1.39625E-015 1.63381 4.36893)" r="1.01333"/>
    </g>
    <g>
     <circle id="_345233584" class="fil1" transform="matrix(-0.0372568 0.0372568 -0.0372568 -0.0372568 2.59867 4.76859)" r="1.01333"/>
     <circle id="_345236800" class="fil1" transform="matrix(-0.0372568 0.0372568 -0.0372568 -0.0372568 1.79935 3.96927)" r="1.01333"/>
    </g>
   </g>
   <g>
    <path id="_345234304" class="fil0" d="M5.05941 3.88676c0.0408583,0 0.0711417,0.0201575 0.10115,0.0401299 0.0150787,0.0100354 0.0300551,0.0200039 0.0388858,0.0214449 0.0088937,0.00144882 0.0262559,-0.00344488 0.0435157,-0.00831102 0.0338031,-0.00952756 0.0674213,-0.0190079 0.105118,-0.00646457 0.0382598,0.0127323 0.0594213,0.0407795 0.0804882,0.0687087 0.0104055,0.0137953 0.0207874,0.0275591 0.0276496,0.0311142 0.00731496,0.00379134 0.0243583,0.00425984 0.0413661,0.00471654 0.0349528,0.000948819 0.0698583,0.00190157 0.101551,0.0251378 0.0319921,0.0234528 0.0432992,0.0563268 0.0545906,0.0891614 0.00551181,0.0160236 0.0110276,0.0320512 0.0164724,0.0374961 0.00544882,0.00544882 0.0214724,0.0109646 0.0375,0.0164724 0.0328425,0.0112992 0.0657165,0.0226102 0.0891575,0.0545945 0.0232402,0.0316969 0.024189,0.0666024 0.0251378,0.101551 0.000456693,0.0170079 0.000925197,0.0340472 0.00471654,0.0413661 0.00355118,0.00685433 0.0173189,0.0172441 0.0311181,0.0276535 0.0279252,0.0210669 0.0559724,0.0422205 0.0687087,0.0804843 0.0125433,0.0376969 0.00306693,0.0713228 -0.00646457,0.105118 -0.00486614,0.0172598 -0.00975591,0.0346142 -0.00830709,0.0435197 0.00143701,0.00883465 0.0114055,0.0238071 0.0214409,0.0388819 0.0199724,0.0300079 0.0401299,0.0602992 0.0401299,0.101154 0,0.0408583 -0.0201575,0.0711417 -0.0401299,0.10115 -0.0100354,0.0150748 -0.02,0.0300472 -0.0214409,0.0388858 -0.00144882,0.0088937 0.00344488,0.0262559 0.00831102,0.0435157 0.00952756,0.0338031 0.0190079,0.0674213 0.00646457,0.105118 -0.0127323,0.038252 -0.0407756,0.0594173 -0.0687047,0.0804843 -0.0137992,0.0104094 -0.027563,0.0207913 -0.0311181,0.0276535 -0.00379134,0.0073189 -0.00425984,0.0243622 -0.00472047,0.0413661 -0.000944882,0.0349488 -0.00190157,0.0698504 -0.0251339,0.101547 -0.0234488,0.0319921 -0.0563228,0.0433031 -0.0891654,0.0545945 -0.0160236,0.00550787 -0.0320433,0.0110197 -0.0374961,0.0164724 -0.00544882,0.00544882 -0.0109646,0.0214764 -0.0164764,0.0375 -0.0112913,0.0328346 -0.0225984,0.0657008 -0.0545866,0.0891575 -0.0317008,0.0232362 -0.0666024,0.024189 -0.101555,0.0251378 -0.0170079,0.000456693 -0.0340433,0.000925197 -0.0413622,0.00471654 -0.00685827,0.00355512 -0.0172441,0.0173189 -0.0276575,0.031122 -0.0210669,0.0279252 -0.0422165,0.0559685 -0.0804803,0.0687047 -0.0377008,0.0125433 -0.0713228,0.00306299 -0.105122,-0.00646457 -0.0172598,-0.00487008 -0.0346102,-0.00976378 -0.0435157,-0.00831102 -0.00883465,0.00144094 -0.023811,0.0114094 -0.0388858,0.0214449 -0.0300079,0.0199724 -0.0602913,0.0401299 -0.10115,0.0401299 -0.0408583,0 -0.0711417,-0.0201575 -0.10115,-0.0401299 -0.0150787,-0.0100354 -0.0300551,-0.0200039 -0.0388858,-0.0214449 -0.00889764,-0.00144882 -0.0262559,0.00344488 -0.0435157,0.00831102 -0.0338031,0.00953543 -0.0674252,0.0190118 -0.105118,0.00646457 -0.0382559,-0.0127323 -0.0594213,-0.0407795 -0.0804882,-0.0687087 -0.0104055,-0.0137953 -0.0207874,-0.0275591 -0.0276496,-0.0311142 -0.0073189,-0.00379134 -0.0243583,-0.00425984 -0.0413661,-0.00471654 -0.0349488,-0.000948819 -0.0698543,-0.00189764 -0.101551,-0.0251378 -0.0319921,-0.0234449 -0.0432992,-0.0563228 -0.0545945,-0.0891614 -0.00550787,-0.0160276 -0.0110236,-0.0320512 -0.0164685,-0.0374961 -0.00545276,-0.00545276 -0.0214724,-0.0109646 -0.0375,-0.0164724 -0.0328425,-0.0112992 -0.0657126,-0.0226063 -0.0891575,-0.0545945 -0.0232362,-0.0316929 -0.024189,-0.0665984 -0.0251378,-0.101551 -0.000456693,-0.0170079 -0.000925197,-0.0340472 -0.00471654,-0.0413622 -0.00355512,-0.00685827 -0.0173228,-0.017248 -0.031122,-0.0276575 -0.0279291,-0.0210669 -0.0559724,-0.0422323 -0.0687047,-0.0804843 -0.0125394,-0.037685 -0.00307087,-0.071315 0.00646457,-0.105118 0.00486614,-0.0172598 0.00975591,-0.0346142 0.00830709,-0.0435157 -0.00143701,-0.00883465 -0.0114055,-0.0238071 -0.0214409,-0.0388858 -0.0199764,-0.0300039 -0.0401339,-0.0602913 -0.0401339,-0.10115 0,-0.0408583 0.0201575,-0.0711457 0.0401339,-0.10115 0.0100354,-0.0150787 0.0200039,-0.0300512 0.0214409,-0.0388858 0.00144882,-0.00890157 -0.00344488,-0.0262598 -0.00831102,-0.0435197 -0.00952756,-0.0338071 -0.0190079,-0.0674291 -0.00646457,-0.105118 0.0127323,-0.038248 0.0407756,-0.0594173 0.0687047,-0.0804843 0.0137992,-0.0104094 0.027563,-0.0207953 0.0311181,-0.0276535 0.00379134,-0.00731496 0.00425984,-0.0243622 0.00472047,-0.0413661 0.000944882,-0.0349488 0.00190157,-0.0698504 0.0251339,-0.101547 0.0234488,-0.0319921 0.0563228,-0.0433031 0.0891654,-0.0545945 0.0160236,-0.00550787 0.0320433,-0.0110197 0.0374961,-0.0164724 0.00544882,-0.00544882 0.0109646,-0.0214764 0.0164764,-0.0375 0.0112913,-0.0328346 0.0225984,-0.0657008 0.0545866,-0.0891575 0.0317047,-0.0232323 0.0666063,-0.024189 0.101551,-0.0251339 0.0170039,-0.00046063 0.0340472,-0.000929134 0.0413661,-0.00472047 0.00686614,-0.00355906 0.017252,-0.0173228 0.0276575,-0.031122 0.0210669,-0.0279252 0.0422205,-0.0559685 0.0804803,-0.0687047 0.0376969,-0.0125433 0.071315,-0.00306299 0.105118,0.00646457 0.0172559,0.00486614 0.0346102,0.00976378 0.0435197,0.00831102 0.00883465,-0.00143701 0.023811,-0.0114055 0.0388858,-0.0214449 0.0300079,-0.0199724 0.0602913,-0.0401299 0.10115,-0.0401299zm0.0424016 0.128878c-0.0166063,-0.0110551 -0.0333701,-0.0222087 -0.0424016,-0.0222087 -0.00903543,0 -0.0257953,0.0111535 -0.0424016,0.0222087 -0.0245157,0.0163268 -0.048878,0.0325354 -0.0805472,0.0376969 -0.032315,0.00526772 -0.0609173,-0.00279134 -0.0893543,-0.010815 -0.0183071,-0.00516142 -0.0365236,-0.0102953 -0.0430394,-0.00812598 -0.00620079,0.00206299 -0.0175315,0.0170827 -0.028811,0.0320354 -0.0176181,0.0233622 -0.0352008,0.0466614 -0.0639094,0.0615394 -0.0285197,0.0147835 -0.0580945,0.0155866 -0.0876181,0.0163898 -0.0180276,0.000484252 -0.0360315,0.000980315 -0.0411339,0.00471654 -0.00485433,0.00355906 -0.0107638,0.0207402 -0.0166654,0.0379055 -0.00955512,0.0277795 -0.0191102,0.0555512 -0.0418937,0.0783346 -0.0227835,0.0227835 -0.0505551,0.0323386 -0.0783307,0.0418898 -0.0171654,0.00590157 -0.0343504,0.011815 -0.0379134,0.0166732 -0.00373622,0.00509843 -0.00423228,0.0231024 -0.00471654,0.0411299 -0.00080315,0.0295236 -0.00160236,0.0591024 -0.0163898,0.0876181 -0.014878,0.0287008 -0.0381732,0.0462874 -0.0615354,0.0639055 -0.0149567,0.0112795 -0.0299724,0.0226142 -0.0320354,0.028815 -0.00216535,0.00651181 0.00296457,0.0247323 0.00812598,0.0430394 0.00801969,0.0284449 0.0160827,0.0570354 0.010815,0.0893543 -0.00516142,0.0316732 -0.0213701,0.0560236 -0.0376929,0.0805472 -0.0110551,0.0166024 -0.0222126,0.0333661 -0.0222126,0.0424016 0,0.00903543 0.0111575,0.0257953 0.0222126,0.0424016 0.0163228,0.0245236 0.0325315,0.048874 0.0376929,0.0805472 0.00526772,0.032311 -0.00279134,0.0609055 -0.010811,0.0893504 -0.00516142,0.0183071 -0.0102953,0.0365157 -0.00812598,0.0430394 0.00206299,0.00620079 0.0170787,0.0175354 0.0320354,0.028815 0.0233583,0.017622 0.0466535,0.0351969 0.0615394,0.0639094 0.0147795,0.0285118 0.0155866,0.0580906 0.0163858,0.0876142 0.000488189,0.0180276 0.000980315,0.0360354 0.00472047,0.0411339 0.00355512,0.00485433 0.0207441,0.0107717 0.0379055,0.0166732 0.0277795,0.00955118 0.0555472,0.0191024 0.0783346,0.0418898 0.0227835,0.0227835 0.0323386,0.0505551 0.0418858,0.0783307 0.00590157,0.0171614 0.011815,0.0343504 0.0166732,0.0379094 0.00509843,0.00373622 0.0231063,0.00423228 0.0411339,0.00472047 0.0295197,0.000795276 0.0590984,0.0016063 0.0876181,0.0163858 0.0287126,0.0148819 0.0462835,0.0381732 0.0639016,0.0615315 0.0112795,0.0149567 0.0226181,0.0299764 0.0288189,0.0320394 0.00651969,0.00216929 0.0247323,-0.00296457 0.0430394,-0.00812598 0.0284449,-0.00801969 0.0570354,-0.0160866 0.0893504,-0.010815 0.031685,0.00516929 0.0560276,0.021378 0.0805472,0.0376969 0.0166063,0.0110551 0.0333661,0.0222087 0.0424016,0.0222087 0.0090315,0 0.0257953,-0.0111535 0.0424016,-0.0222087 0.0245157,-0.0163189 0.048874,-0.0325276 0.0805472,-0.0376969 0.032315,-0.00527165 0.0609134,0.00279134 0.0893504,0.010815 0.0183031,0.00516142 0.0365197,0.0102953 0.0430433,0.00812598 0.00620079,-0.00206299 0.0175315,-0.0170827 0.028811,-0.0320354 0.017622,-0.0233583 0.0351929,-0.0466496 0.0639094,-0.0615394 0.0285197,-0.0147795 0.0580945,-0.0155906 0.0876142,-0.0163858 0.0180276,-0.000488189 0.0360354,-0.000980315 0.0411378,-0.00472047 0.00485433,-0.00355906 0.0107638,-0.0207402 0.0166654,-0.0379055 0.00955512,-0.0277795 0.0191102,-0.0555512 0.0418937,-0.0783346 0.0227835,-0.0227835 0.0505551,-0.0323386 0.0783307,-0.0418898 0.0171654,-0.00590157 0.0343504,-0.011815 0.0379134,-0.0166732 0.00374016,-0.00510236 0.00423228,-0.0231024 0.00471654,-0.0411299 0.00080315,-0.0295236 0.0016063,-0.0590984 0.0163898,-0.0876181 0.014878,-0.0287008 0.0381732,-0.0462874 0.0615354,-0.0639055 0.0149567,-0.0112795 0.0299724,-0.0226142 0.0320354,-0.028815 0.00216929,-0.00651575 -0.00296457,-0.0247323 -0.00812598,-0.0430394 -0.00801969,-0.0284409 -0.0160866,-0.0570354 -0.010815,-0.0893504 0.00516142,-0.0316693 0.0213701,-0.0560276 0.0376929,-0.0805472 0.0110551,-0.0166063 0.0222087,-0.0333701 0.0222087,-0.0424016 0,-0.00903543 -0.0111535,-0.0257992 -0.0222087,-0.0424055 -0.0163228,-0.0245197 -0.0325315,-0.0488661 -0.0376929,-0.0805433 -0.00526772,-0.032311 0.00279134,-0.0609094 0.010811,-0.0893543 0.00516142,-0.0183031 0.0102953,-0.0365197 0.00812598,-0.0430394 -0.00206299,-0.00620079 -0.0170866,-0.0175354 -0.0320394,-0.028815 -0.0233583,-0.017622 -0.0466535,-0.0351929 -0.0615354,-0.0639055 -0.0147795,-0.0285197 -0.0155906,-0.0580984 -0.0163858,-0.0876181 -0.000488189,-0.0180276 -0.000984252,-0.0360354 -0.00472047,-0.0411339 -0.00355906,-0.00485827 -0.0207441,-0.0107717 -0.0379055,-0.0166732 -0.0277756,-0.00954724 -0.0555472,-0.0191024 -0.0783346,-0.0418898 -0.0227795,-0.0227795 -0.0323346,-0.0505512 -0.0418898,-0.0783307 -0.00590157,-0.0171654 -0.0118189,-0.0343543 -0.0166693,-0.0379094 -0.00509843,-0.00374016 -0.0231063,-0.00423228 -0.0411339,-0.00472047 -0.0295197,-0.000795276 -0.0590984,-0.0016063 -0.0876181,-0.0163858 -0.0287087,-0.0148819 -0.0462835,-0.0381732 -0.0639016,-0.0615315 -0.0112795,-0.0149567 -0.0226181,-0.0299764 -0.0288189,-0.0320394 -0.00651575,-0.00216929 -0.0247323,0.00296457 -0.0430394,0.00812598 -0.0284449,0.00801969 -0.0570354,0.0160866 -0.0893504,0.010815 -0.0316811,-0.00516929 -0.0560276,-0.021378 -0.0805472,-0.0376969z"/>
    <path id="_345241864" class="fil0" d="M5.05941 4.14254c0.181736,0 0.346276,0.0736732 0.465378,0.192772 0.119102,0.119102 0.192772,0.283642 0.192772,0.465378 0,0.181732 -0.0736693,0.346272 -0.192772,0.465374 -0.119102,0.119098 -0.283642,0.192772 -0.465378,0.192772 -0.181736,0 -0.346276,-0.0736732 -0.465378,-0.192772 -0.119102,-0.119102 -0.192772,-0.283642 -0.192772,-0.465374 0,-0.181736 0.0736693,-0.346276 0.192772,-0.465378 0.119102,-0.119098 0.283642,-0.192772 0.465378,-0.192772zm0.389961 0.268189c-0.0997953,-0.0997913 -0.237669,-0.16152 -0.389961,-0.16152 -0.152291,0 -0.290165,0.0617283 -0.389961,0.16152 -0.0997913,0.0997913 -0.16152,0.237669 -0.16152,0.389961 0,0.152287 0.0617283,0.290165 0.16152,0.389957 0.0997953,0.0997913 0.237669,0.16152 0.389961,0.16152 0.152291,0 0.290165,-0.0617283 0.389961,-0.16152 0.0997913,-0.0997913 0.16152,-0.237669 0.16152,-0.389957 0,-0.152291 -0.0617283,-0.290169 -0.16152,-0.389961z"/>
    <path id="_345244696" class="fil0" d="M5.05941 4.60514c0.0539921,0 0.102886,0.0218937 0.138272,0.0572795 0.0353858,0.0353858 0.0572795,0.0842795 0.0572795,0.138272 0,0.0539921 -0.0218937,0.102882 -0.0572795,0.138268 -0.0353858,0.0353858 -0.0842795,0.0572795 -0.138272,0.0572795 -0.0539921,0 -0.102886,-0.0218937 -0.138272,-0.0572795 -0.0353858,-0.0353858 -0.0572795,-0.0842756 -0.0572795,-0.138268 0,-0.0539921 0.0218937,-0.102886 0.0572795,-0.138272 0.0353858,-0.0353858 0.0842795,-0.0572795 0.138272,-0.0572795zm0.0628543 0.132697c-0.0160787,-0.0160787 -0.0383071,-0.0260276 -0.0628543,-0.0260276 -0.0245472,0 -0.0467756,0.00994882 -0.0628543,0.0260276 -0.0160787,0.0160787 -0.0260276,0.0383071 -0.0260276,0.0628543 0,0.0245472 0.00994882,0.0467717 0.0260276,0.0628504 0.0160787,0.0160787 0.0383071,0.0260276 0.0628543,0.0260276 0.0245472,0 0.0467756,-0.00994882 0.0628543,-0.0260276 0.0160787,-0.0160787 0.0260276,-0.0383031 0.0260276,-0.0628504 0,-0.0245472 -0.00994882,-0.0467756 -0.0260276,-0.0628543z"/>
    <g>
     <circle id="_345240304" class="fil1" cx="5.05941" cy="4.42431" r="0.035554"/>
     <circle id="_345239512" class="fil1" cx="5.05941" cy="5.17706" r="0.035554"/>
    </g>
    <g>
     <circle id="_345235144" class="fil1" transform="matrix(0.0248097 0.0248097 -0.0248097 0.0248097 5.32554 4.53455)" r="1.01333"/>
     <circle id="_345237784" class="fil1" transform="matrix(0.0248097 0.0248097 -0.0248097 0.0248097 4.79327 5.06683)" r="1.01333"/>
    </g>
    <g>
     <circle id="_345241144" class="fil1" transform="matrix(9.29783E-016 0.0350863 -0.0350863 9.29782E-016 5.43578 4.80069)" r="1.01333"/>
     <circle id="_345236632" class="fil1" transform="matrix(9.29783E-016 0.0350863 -0.0350863 9.29782E-016 4.68303 4.80069)" r="1.01333"/>
    </g>
    <g>
     <circle id="_345238672" class="fil1" transform="matrix(-0.0248097 0.0248097 -0.0248097 -0.0248097 5.32554 5.06683)" r="1.01333"/>
     <circle id="_345237664" class="fil1" transform="matrix(-0.0248097 0.0248097 -0.0248097 -0.0248097 4.79327 4.53455)" r="1.01333"/>
    </g>
   </g>
   <polygon id="_345239368" class="fil0" points="3.84037,2.99233 1.23796,2.99233 1.23796,2.88567 3.84037,2.88567 "/>
   <polygon id="_345231952" class="fil0" points="2.40001,1.16541 2.40001,2.939 2.29334,2.939 2.29334,1.16541 "/>
   <path id="_345235960" class="fil0" d="M4.84192 1.99554l0.285102 0 0.0533346 0 0 0.0533346 0 1.06828 0 0.0611063 -0.060626 -0.00839764 -0.285102 -0.0394764 -0.0460433 -0.00637402 0 -0.0463346 0 -1.0288 0 -0.0533346 0.0533346 0zm0.231768 0.106669l-0.178433 0 0 0.929134 0.178433 0.0247087 0 -0.953843z"/>
   <polygon id="_345238864" class="fil0" points="5.03781,1.69933 5.03781,2.04888 4.93114,2.04888 4.93114,1.69933 "/>
   <g>
    <polygon id="_345233992" class="fil0" points="3.72063,3.19431 3.72063,3.51466 3.61396,3.51466 3.61396,3.19431 "/>
    <polygon id="_345233920" class="fil0" points="3.98759,3.221 3.98759,3.54135 3.88093,3.54135 3.88093,3.221 "/>
    <polygon id="_345238168" class="fil0" points="4.25455,3.2477 4.25455,3.56805 4.14788,3.56805 4.14788,3.2477 "/>
    <polygon id="_345234880" class="fil0" points="4.52151,3.27439 4.52151,3.59474 4.41484,3.59474 4.41484,3.27439 "/>
    <polygon id="_345233296" class="fil0" points="4.78846,3.30109 4.78846,3.62144 4.6818,3.62144 4.6818,3.30109 "/>
   </g>
  </g>
 </g>
 <rect class="fil2" width="6.82666" height="6.82666"/>
</svg>
